HIERARCHY
ROOT Hips
{
	OFFSET 0.00000 0.00000 0.00000
	CHANNELS 6 Xposition Yposition Zposition Yrotation Zrotation Xrotation 
	JOINT Lumbar
	{
		OFFSET 0 0 0
		CHANNELS 3 Zrotation Xrotation Yrotation
		JOINT Neck
		{
			OFFSET 0.00 0.2701 0.00
			CHANNELS 3 Zrotation Xrotation Yrotation
			End Site
			{
				OFFSET 0.00 0.1379 0.00
			}
		}
		JOINT RightShoulder
		{
			OFFSET 0.0119 0.2289 0.1181
			CHANNELS 3 Zrotation Xrotation Yrotation
			JOINT RightElbow
			{
				OFFSET 0.00 -0.1475 0.00
				CHANNELS 2 Zrotation Yrotation
				JOINT RightWrist
				{
					OFFSET 0.00 -0.1605 0.00
					CHANNELS 2 Zrotation Xrotation
					End Site
					{
						OFFSET 0.0040 -0.1068 0.0006
					}
				}
			}
		}
		JOINT LeftShoulder
		{
			OFFSET 0.0119 0.2289 -0.1181
			CHANNELS 3 Zrotation Xrotation Yrotation
			JOINT LeftElbow
			{
				OFFSET 0.00 -0.1475 0.00
				CHANNELS 2 Zrotation Yrotation
				JOINT LeftWrist
				{
					OFFSET 0.00 -0.1605 0.00
					CHANNELS 2 Zrotation Xrotation
					End Site
					{
						OFFSET 0.0040 -0.1068 -0.0006
					}
				}
			}
		}
	}
	JOINT RightHip
	{
		OFFSET 0.0316 -0.0424 0.0458
		CHANNELS 3 Zrotation Xrotation Yrotation
		JOINT RightKnee
		{
			OFFSET 0.00 -0.2438 0.00
			CHANNELS 1 Zrotation
			JOINT RightAnkle
			{
				OFFSET 0.00 -0.2449 0.00
				CHANNELS 3 Zrotation Xrotation Yrotation
				End Site
				{
					OFFSET 0.1237 -0.0542 0.0051
				}
			}
		}
	}
	JOINT LeftHip
	{
		OFFSET 0.0316 -0.0424 -0.0458
		CHANNELS 3 Zrotation Xrotation Yrotation
		JOINT LeftKnee
		{
			OFFSET 0.00 -0.2438 0.00
			CHANNELS 1 Zrotation
			JOINT LeftAnkle
			{
				OFFSET 0.00 -0.2449 0.00
				CHANNELS 3 Zrotation Xrotation Yrotation
				End Site
				{
					OFFSET 0.1237 -0.0542 -0.0051
				}
			}
		}
	}
}
MOTION
Frames: 25
Frame Time: 0.02
0.69216 0.13866 -0.36114 84.97142 -23.53708 -12.96456 37.58365 -0.36629 -7.65407 -2.87666 12.42573 -2.11994 2.80296 -17.64807 -28.40891 78.27653 82.34829 1.79413 -2.31691 -8.38268 13.31114 30.62402 93.02502 -89.9682 11.98208 0.80045 13.7891 10.07905 -8.54505 0.12355 15.63732 -4.56737 -1.02931 23.61743 19.12594 14.54185 -0.57895 -9.26019 -32.41535 -12.69679
0.69219 0.13854 -0.35564 86.17424 -24.01882 -13.01679 36.74559 -0.08405 -7.47042 -2.88342 12.14667 -2.11994 2.18416 -16.59143 -27.5995 79.12847 82.68151 1.90564 -2.08872 -8.72365 13.12221 29.1356 93.71413 -89.97492 11.73898 0.75918 14.73455 10.22006 -8.94457 0.12871 15.76847 -5.79693 -1.64609 26.04731 18.88891 12.26812 -2.88549 -9.39344 -26.70162 -10.03464
0.69197 0.13835 -0.3496 87.44501 -24.53689 -13.08366 35.79247 0.2503 -7.26597 -2.99994 11.76447 -2.11994 1.81529 -15.2708 -27.12566 79.8564 83.33331 2.29052 -1.71717 -8.90166 13.10417 27.36077 94.28207 -90.00061 11.50481 0.7161 15.77612 10.33127 -10.54069 0.12623 15.44827 -5.39575 -1.71965 28.85678 18.56952 9.58906 -5.8696 -9.32416 -19.32425 -6.6106
0.69187 0.13819 -0.34384 88.6855 -25.03891 -13.14317 34.91612 0.55634 -7.07023 -3.08659 11.40649 -2.11994 1.30607 -14.10498 -26.45486 80.64352 83.81498 2.52958 -1.42213 -9.14919 13.0196 25.71947 94.90294 -90.02167 11.26749 0.67262 16.7865 10.44858 -11.51235 0.0941 15.27985 -5.81942 -2.07681 31.45099 18.2878 7.15176 -8.53359 -9.35215 -12.91838 -3.63237
0.69175 0.13802 -0.33787 89.92461 -25.54834 -13.20588 33.92994 0.88442 -6.87939 -3.09096 11.13839 -2.11994 0.89648 -12.79741 -25.94168 81.44424 84.39623 2.85071 -1.08165 -9.41954 12.88986 24.05177 95.54333 -90.02467 11.02205 0.6338 17.76227 10.59628 -12.70133 0.19771 15.33297 -6.06323 -2.35548 34.24902 18.00083 4.46448 -11.25855 -9.36671 -5.60407 -0.23386
0.69161 0.13785 -0.33225 91.18233 -26.04765 -13.2654 33.14782 1.17748 -6.67292 -3.2901 10.6638 -2.11994 0.34459 -11.71861 -25.19385 82.1792 84.84941 3.07024 -0.80033 -9.60247 12.89272 22.37737 96.11229 -90.0697 10.79736 0.58519 18.82576 10.67321 -13.77078 0.01836 14.8206 -6.22452 -2.63758 36.70021 17.70858 2.20477 -14.0089 -9.35789 0.21779 2.47213
0.69152 0.13771 -0.32769 92.47336 -26.50722 -13.31186 32.95577 1.36728 -6.42675 -4.02148 9.60921 -2.11994 -0.66779 -11.35841 -23.68669 82.73914 84.86102 2.93061 -0.72174 -9.58106 13.23649 20.73437 96.48802 -90.23281 10.62656 0.50814 20.11255 10.57163 -14.19605 -0.94202 12.8376 -6.59585 -3.08203 38.14312 17.40025 1.21892 -16.72011 -9.33318 1.45817 3.05511
0.69143 0.13758 -0.32352 93.7802 -26.95501 -13.35488 32.97414 1.5185 -6.16616 -4.94013 8.35864 -2.11994 -1.82735 -11.23335 -21.94149 83.2371 84.73561 2.68255 -0.7054 -9.47729 13.70442 19.09996 96.7988 -90.43643 10.4769 0.42168 21.48208 10.39824 -14.47953 -2.18672 10.30664 -6.9098 -3.53453 39.21299 17.09357 0.67896 -19.41956 -9.29077 1.1481 2.91885
0.69131 0.13743 -0.31921 95.0814 -27.40804 -13.39968 32.89818 1.68321 -5.91228 -5.76027 7.21938 -2.11994 -2.91565 -10.98501 -20.32803 83.77581 84.68034 2.49301 -0.65896 -9.4125 14.10496 17.47607 97.15455 -90.61762 10.31932 0.34081 22.80665 10.25186 -14.8612 -3.29876 8.03749 -7.199 -3.95923 40.42334 16.80093 -0.0597 -22.09039 -9.25593 1.58292 3.12779
0.69127 0.13731 -0.31475 96.38118 -27.86091 -13.44338 32.81297 1.8673 -5.65479 -6.64478 5.97694 -2.11994 -4.02078 -10.79511 -18.62508 84.25996 84.60258 2.27404 -0.61997 -9.33546 14.55888 15.7803 97.44187 -90.81708 10.15596 0.25439 24.16111 10.12857 -15.14608 -4.42284 5.69175 -7.64524 -4.46722 41.77077 16.44389 -0.82738 -24.93996 -9.21657 1.90779 3.28686
0.69109 0.13715 -0.31068 97.6834 -28.31341 -13.48922 32.79806 2.00057 -5.40449 -7.43333 4.91125 -2.11994 -5.12044 -10.54494 -17.04927 84.84154 84.53531 2.08684 -0.57611 -9.26657 14.92746 14.24108 97.8568 -90.98705 10.00814 0.17721 25.47772 9.93998 -15.57601 -5.59283 3.38987 -7.77609 -4.81177 42.73804 16.22126 -1.42575 -27.391 -9.18457 2.06929 3.3679
0.69055 0.13691 -0.30769 99.01514 -28.74437 -13.53466 32.93003 2.00777 -5.1543 -7.95259 4.32238 -2.11994 -6.23927 -10.05572 -15.86997 85.73241 84.52519 2.01402 -0.5596 -9.24112 15.04253 13.12721 98.64866 -91.07182 9.90967 0.12902 26.61724 9.59327 -16.50618 -6.79155 1.27168 -7.00928 -4.69058 42.75362 16.38009 -1.64017 -28.86651 -9.18168 2.17157 3.41535
0.68987 0.13664 -0.30506 100.34217 -29.17907 -13.58373 33.12472 1.96397 -4.91701 -8.36062 3.92991 -2.11994 -7.33303 -9.50357 -14.82824 86.71924 84.52885 1.97474 -0.5291 -9.22792 15.0652 12.17448 99.56995 -91.12376 9.82348 0.09027 27.7256 9.18241 -17.56903 -8.03342 -0.76797 -5.94187 -4.40924 42.39694 16.67242 -1.70019 -29.91586 -9.18687 2.15214 3.40408
0.68924 0.13637 -0.30221 101.65519 -29.62771 -13.63567 33.28927 1.94013 -4.68824 -8.79168 3.48666 -2.11994 -8.39669 -8.98932 -13.72953 87.64633 84.52924 1.91971 -0.46545 -9.20872 15.11985 11.15071 100.42708 -91.18725 9.72455 0.04647 28.88129 8.79833 -18.52337 -9.2723 -2.79418 -5.04714 -4.21217 42.20337 16.89724 -1.84824 -31.07586 -9.18658 2.1719 3.41202
0.68866 0.13614 -0.29959 103.04233 -30.01169 -13.66808 33.47039 1.92866 -4.39525 -9.34511 2.87334 -2.11994 -9.6511 -8.43689 -12.59682 88.63964 84.51612 1.86656 -0.55922 -9.18614 15.2172 10.11159 101.30512 -91.26847 9.65834 0.00553 29.89759 8.42262 -19.67871 -10.44487 -5.04658 -3.99906 -3.96741 42.0198 17.15157 -1.91421 -32.58334 -9.19364 2.20703 3.42712
0.68795 0.13582 -0.29657 104.26707 -30.52918 -13.7425 33.62617 1.87967 -4.24302 -9.61531 2.66437 -2.11994 -10.48708 -7.95472 -11.57381 89.51822 84.53153 1.81464 -0.33537 -9.1774 15.20704 9.15039 102.17032 -91.30185 9.52442 -0.03896 31.19859 8.01406 -20.44652 -11.7697 -6.80282 -3.19753 -3.78281 41.73538 17.37532 -2.10943 -33.26977 -9.187 2.20079 3.42239
0.68695 0.13532 -0.29238 105.10207 -31.43354 -13.92821 33.7232 1.74116 -4.4434 -9.12709 3.51566 -2.11994 -10.28765 -7.60928 -10.79632 90.05803 84.66302 1.79485 0.88814 -9.18033 14.88023 8.29814 102.97563 -91.23454 9.22062 -0.09595 33.26526 7.54085 -20.12708 -13.43409 -7.19708 -3.17383 -3.81363 41.23416 17.48891 -2.79569 -31.75945 -9.14624 2.11879 3.38161
0.68582 0.13474 -0.28776 105.76349 -32.46859 -14.15661 33.78792 1.56681 -4.79047 -8.359 4.7682 -2.11994 -9.64675 -7.35093 -10.13179 90.47751 84.81642 1.7694 2.4094 -9.20148 14.45665 7.53038 103.76194 -91.11668 8.84544 -0.15677 35.62197 7.03555 -19.41001 -15.25907 -7.09374 -3.40474 -3.90863 40.65173 17.5658 -3.60323 -29.44456 -9.09079 2.00537 3.32566
0.68473 0.13417 -0.28328 106.4659 -33.43134 -14.36826 33.84718 1.40766 -5.09295 -7.71833 5.84525 -2.11994 -9.13155 -7.09691 -9.43015 90.95345 84.93301 1.72204 3.70966 -9.23029 14.10333 6.76881 104.55329 -91.00508 8.48836 -0.21545 37.86689 6.53807 -18.86654 -17.0588 -7.22301 -3.50415 -3.96764 40.12745 17.65497 -4.29212 -27.51925 -9.03803 1.90823 3.2773
0.68369 0.13368 -0.27904 107.32599 -34.44881 -14.5697 33.98815 1.25021 -5.30566 -7.06624 6.90593 -2.11994 -8.92875 -6.64809 -8.66615 91.43177 85.16088 1.77655 5.36461 -9.19259 13.63198 5.82807 105.36672 -90.95862 8.18801 -0.27524 40.03597 6.06549 -18.36083 -18.67037 -7.32361 -3.65961 -4.04991 39.4998 17.76744 -5.23671 -25.47504 -9.00099 1.79731 3.22335
0.68254 0.13303 -0.2742 107.81919 -35.38317 -14.80144 33.9575 1.08275 -5.73627 -6.38129 8.08613 -2.11994 -7.97473 -6.63575 -8.06582 91.86707 85.16515 1.62033 6.36076 -9.29706 13.38957 5.27418 106.12491 -90.77032 7.75769 -0.33407 42.42007 5.53599 -17.67628 -20.69678 -7.36543 -3.76278 -4.10098 39.07365 17.82084 -5.68821 -23.49669 -8.92932 1.70955 3.17845
0.68104 0.13181 -0.26755 107.32039 -36.05648 -15.11493 33.39789 0.88535 -6.76496 -5.60197 9.56139 -2.11994 -5.02045 -7.72952 -7.81497 92.28149 84.51986 0.85564 5.38276 -9.79372 13.76005 5.80538 106.76175 -90.15615 6.94064 -0.38642 45.42956 4.84262 -16.63117 -23.95181 -7.37697 -3.66065 -4.05183 39.22179 17.72017 -4.67415 -21.86822 -8.75077 1.69484 3.16214
0.67944 0.13045 -0.26034 106.46395 -36.64121 -15.45538 32.677 0.68167 -8.00175 -4.81291 11.13085 -2.11994 -1.33281 -9.27497 -7.73823 92.64244 83.65386 -0.11593 3.74622 -10.43153 14.37156 6.71581 107.33864 -89.40985 6.00377 -0.43813 48.62474 4.09596 -15.41383 -27.594 -7.34493 -3.49854 -3.96963 39.57811 17.56069 -3.17348 -20.34227 -8.54042 1.70484 3.15574
0.67792 0.12922 -0.25354 105.78325 -37.26661 -15.77847 32.07229 0.48808 -9.12207 -4.07655 12.61414 -2.11994 1.998 -10.66424 -7.63015 92.98384 82.90626 -0.97459 2.46565 -11.00259 14.90289 7.4264 107.92418 -88.75473 5.15128 -0.49223 51.66992 3.38381 -14.24932 -30.98059 -7.32642 -3.36432 -3.9022 39.84198 17.42736 -1.9463 -18.78922 -8.35457 1.70366 3.14539
0.67627 0.12769 -0.24609 105.03419 -37.89614 -16.1265 31.28997 0.26172 -10.34008 -3.12792 14.29251 -2.11994 5.4477 -11.84688 -7.32436 93.51058 82.08254 -1.91301 0.95833 -11.58725 15.31176 8.25354 108.5852 -87.96635 4.16951 -0.53814 55.00913 2.62774 -13.17271 -34.71603 -7.31699 -3.23548 -3.83766 40.09244 17.29505 -0.50592 -17.12161 -8.12659 1.70189 3.13258
